<svg width="512" height="512" viewBox="0 0 512 512" fill="none" xmlns="http://www.w3.org/2000/svg">
<rect width="512" height="512" fill="#E6E6E6"/>
<rect x="162.343" y="117.05" width="209.921" height="237.373" fill="white"/>
<rect x="92.9072" y="113.821" width="119.494" height="230.913" fill="#2BC6EB"/>
<rect x="320.591" y="117.05" width="116.264" height="237.373" fill="#EF4565"/>
<path d="M321.6 110.884C281.42 110.884 244.52 84.6439 188.76 84.6439C162.519 84.6439 140.379 90.3839 122.339 97.764C123.979 93.664 123.979 89.5639 123.979 84.6439C123.979 83.8239 123.979 82.1839 123.979 80.5439C122.339 61.6838 106.759 46.9237 87.8989 46.1037C64.9388 44.4636 46.0786 62.5038 46.0786 84.6439C46.0786 99.404 53.4587 112.524 65.7588 119.084V452.006C65.7588 459.386 71.4988 465.126 78.8788 465.126H91.9989C98.559 465.126 105.119 459.386 105.119 452.006V383.946C135.459 370.006 163.339 360.166 209.26 360.166C249.44 360.166 286.34 386.406 342.101 386.406C390.481 386.406 425.741 368.366 447.881 354.426C458.541 347.046 465.921 334.746 465.921 320.805V124.004C465.921 96.124 436.401 77.2639 410.981 87.9239C381.461 101.044 350.301 110.884 321.6 110.884ZM426.561 320.805C408.521 333.926 376.541 347.046 342.101 347.046C292.9 347.046 258.46 320.805 209.26 320.805C173.999 320.805 130.539 329.005 105.119 340.486V150.244C122.339 137.944 154.319 124.004 188.76 124.004C237.96 124.004 272.4 150.244 321.6 150.244C356.861 150.244 400.321 136.304 426.561 124.004V320.805Z" fill="#2F3957"/>
</svg>
